<?xml version="1.0" standalone="no"?>
<!DOCTYPE svg PUBLIC "-//W3C//DTD SVG 20010904//EN"
 "http://www.w3.org/TR/2001/REC-SVG-20010904/DTD/svg10.dtd">
<svg version="1.0" xmlns="http://www.w3.org/2000/svg"
 width="512.000000pt" height="512.000000pt" viewBox="0 0 512.000000 512.000000"
 preserveAspectRatio="xMidYMid meet">
<metadata>
Created by potrace 1.14, written by Peter Selinger 2001-2017
</metadata>
<g transform="translate(0.000000,512.000000) scale(0.100000,-0.100000)"
fill="#000000" stroke="none">
<path d="M1160 3997 c-47 -24 -50 -42 -50 -350 0 -200 4 -295 12 -310 17 -33
39 -46 78 -46 19 0 42 5 51 12 36 27 39 52 39 291 l0 236 236 0 c239 0 264 3
291 39 7 9 12 32 12 51 0 39 -13 61 -46 78 -32 17 -589 16 -623 -1z"/>
<path d="M3335 3998 c-32 -19 -44 -40 -44 -78 0 -19 5 -42 12 -51 27 -36 52
-39 291 -39 l236 0 0 -236 c0 -239 3 -264 39 -291 43 -33 123 -3 136 50 3 12
5 154 3 314 -3 289 -3 293 -26 315 -22 23 -25 23 -325 25 -216 2 -308 0 -322
-9z"/>
<path d="M1480 3190 l0 -450 450 0 450 0 0 450 0 450 -450 0 -450 0 0 -450z
m720 5 l0 -275 -275 0 -275 0 0 275 0 275 275 0 275 0 0 -275z"/>
<path d="M1840 3195 l0 -85 85 0 85 0 0 85 0 85 -85 0 -85 0 0 -85z"/>
<path d="M2740 3190 l0 -450 450 0 450 0 0 450 0 450 -450 0 -450 0 0 -450z
m730 5 l0 -275 -275 0 -275 0 0 275 0 275 275 0 275 0 0 -275z"/>
<path d="M3110 3195 l0 -85 85 0 85 0 0 85 0 85 -85 0 -85 0 0 -85z"/>
<path d="M2560 2380 l0 -180 90 0 90 0 0 90 0 91 93 -3 92 -3 3 -87 3 -88 84
0 85 0 0 180 0 180 -270 0 -270 0 0 -180z"/>
<path d="M3290 2470 l0 -90 175 0 175 0 0 90 0 90 -175 0 -175 0 0 -90z"/>
<path d="M1480 1930 l0 -450 450 0 450 0 0 450 0 450 -450 0 -450 0 0 -450z
m720 -5 l0 -275 -275 0 -275 0 0 275 0 275 275 0 275 0 0 -275z"/>
<path d="M1840 1925 l0 -85 85 0 85 0 0 85 0 85 -85 0 -85 0 0 -85z"/>
<path d="M2740 2100 l0 -90 -90 0 -90 0 0 -85 0 -85 180 0 180 0 0 175 0 175
-90 0 -90 0 0 -90z"/>
<path d="M3110 2015 l0 -175 85 0 85 0 0 90 0 90 180 0 180 0 0 85 0 85 -265
0 -265 0 0 -175z"/>
<path d="M1142 1810 c-12 -11 -24 -31 -27 -43 -3 -12 -5 -154 -3 -314 3 -289
3 -293 26 -315 22 -23 26 -23 315 -26 160 -2 302 0 314 3 53 13 83 93 50 136
-27 36 -52 39 -291 39 l-236 0 0 236 c0 239 -3 264 -39 291 -25 20 -84 16
-109 -7z"/>
<path d="M3470 1740 l0 -90 -180 0 -180 0 0 -85 0 -85 265 0 265 0 0 175 0
175 -85 0 -85 0 0 -90z"/>
<path d="M3869 1817 c-36 -27 -39 -52 -39 -291 l0 -236 -236 0 c-239 0 -264
-3 -291 -39 -33 -43 -3 -123 50 -136 12 -3 154 -5 314 -3 289 3 293 3 315 26
23 22 23 26 26 315 2 160 0 302 -3 314 -13 53 -93 83 -136 50z"/>
<path d="M2560 1565 l0 -85 180 0 180 0 0 85 0 85 -180 0 -180 0 0 -85z"/>
</g>
</svg>
