<?xml version="1.0" standalone="no"?>
<!DOCTYPE svg PUBLIC "-//W3C//DTD SVG 20010904//EN"
 "http://www.w3.org/TR/2001/REC-SVG-20010904/DTD/svg10.dtd">
<svg version="1.0" xmlns="http://www.w3.org/2000/svg"
 width="512.000000pt" height="512.000000pt" viewBox="0 0 512.000000 512.000000"
 preserveAspectRatio="xMidYMid meet">
<metadata>
Created by potrace 1.14, written by Peter Selinger 2001-2017
</metadata>
<g transform="translate(0.000000,512.000000) scale(0.100000,-0.100000)"
fill="#000000" stroke="none">
<path d="M721 4462 c-19 -9 -44 -30 -55 -45 -20 -27 -21 -43 -24 -340 -2 -282
-1 -315 15 -346 50 -97 182 -106 247 -18 20 26 21 44 24 253 l3 224 202 0
c111 0 218 5 238 10 19 5 48 24 65 41 25 26 29 38 29 89 0 68 -21 105 -76 132
-30 16 -68 18 -334 18 -266 0 -304 -2 -334 -18z"/>
<path d="M3731 4462 c-97 -49 -106 -181 -18 -246 26 -20 44 -21 253 -24 l224
-3 0 -202 c0 -111 5 -218 10 -238 5 -19 24 -48 41 -65 26 -25 38 -29 89 -29
68 0 104 21 133 76 16 31 17 64 15 346 -4 432 26 403 -413 403 -266 0 -304 -2
-334 -18z"/>
<path d="M1160 3355 l0 -605 605 0 605 0 0 605 0 605 -605 0 -605 0 0 -605z
m970 0 l0 -365 -365 0 -365 0 0 365 0 365 365 0 365 0 0 -365z"/>
<path d="M2750 3355 l0 -605 605 0 605 0 0 605 0 605 -605 0 -605 0 0 -605z
m970 0 l0 -365 -365 0 -365 0 0 365 0 365 365 0 365 0 0 -365z"/>
<path d="M1160 1765 l0 -605 605 0 605 0 0 605 0 605 -605 0 -605 0 0 -605z
m970 0 l0 -365 -365 0 -365 0 0 365 0 365 365 0 365 0 0 -365z"/>
<path d="M2750 2220 l0 -150 150 0 150 0 0 -155 0 -155 -150 0 -150 0 0 -150
0 -150 150 0 150 0 0 -150 0 -150 150 0 150 0 0 150 0 150 150 0 150 0 0 -150
0 -150 155 0 155 0 0 150 0 150 -150 0 -150 0 0 150 0 150 150 0 150 0 0 155
0 155 -150 0 -150 0 0 150 0 150 -155 0 -155 0 0 -150 0 -150 -150 0 -150 0 0
150 0 150 -150 0 -150 0 0 -150z m900 -305 l0 -155 -150 0 -150 0 0 -150 0
-150 -150 0 -150 0 0 150 0 150 150 0 150 0 0 155 0 155 150 0 150 0 0 -155z"/>
<path d="M721 1453 c-19 -10 -44 -31 -55 -46 -20 -27 -21 -41 -21 -352 0 -446
-31 -415 410 -415 266 0 304 2 334 18 97 49 106 181 18 246 -26 20 -44 21
-253 24 l-224 3 0 202 c0 111 -5 218 -10 238 -23 82 -122 123 -199 82z"/>
<path d="M4271 1453 c-19 -10 -44 -31 -55 -46 -20 -26 -21 -44 -24 -253 l-3
-224 -202 0 c-111 0 -218 -5 -238 -10 -19 -5 -48 -24 -65 -41 -25 -26 -29 -38
-29 -89 0 -68 21 -105 76 -132 30 -16 68 -18 334 -18 330 0 345 2 389 63 20
27 21 43 24 340 2 282 1 315 -15 346 -37 71 -124 100 -192 64z"/>
</g>
</svg>
