<?xml version="1.0" standalone="no"?>
<!DOCTYPE svg PUBLIC "-//W3C//DTD SVG 20010904//EN"
 "http://www.w3.org/TR/2001/REC-SVG-20010904/DTD/svg10.dtd">
<svg version="1.0" xmlns="http://www.w3.org/2000/svg"
 width="512.000000pt" height="512.000000pt" viewBox="0 0 512.000000 512.000000"
 preserveAspectRatio="xMidYMid meet">
<metadata>
Created by potrace 1.14, written by Peter Selinger 2001-2017
</metadata>
<g transform="translate(0.000000,512.000000) scale(0.100000,-0.100000)"
fill="#000000" stroke="none">
<path d="M517 4603 c-4 -3 -7 -204 -7 -445 l0 -438 155 0 155 0 0 290 0 290
290 0 290 0 0 155 0 155 -438 0 c-241 0 -442 -3 -445 -7z"/>
<path d="M3720 4455 l0 -155 290 0 290 0 0 -290 0 -290 155 0 155 0 -2 443 -3
442 -442 3 -443 2 0 -155z"/>
<path d="M1070 3405 l0 -645 645 0 645 0 0 645 0 645 -645 0 -645 0 0 -645z
m1030 5 l0 -390 -390 0 -390 0 0 390 0 390 390 0 390 0 0 -390z"/>
<path d="M2760 3405 l0 -645 645 0 645 0 0 645 0 645 -645 0 -645 0 0 -645z
m1030 5 l0 -390 -390 0 -390 0 0 390 0 390 390 0 390 0 0 -390z"/>
<path d="M1070 1715 l0 -645 645 0 645 0 0 645 0 645 -645 0 -645 0 0 -645z
m1030 -5 l0 -390 -390 0 -390 0 0 390 0 390 390 0 390 0 0 -390z"/>
<path d="M2760 2195 l0 -165 160 0 160 0 0 -160 0 -160 -160 0 -160 0 0 -160
0 -160 160 0 160 0 0 -160 0 -160 160 0 159 0 3 158 3 157 163 3 162 2 0 -160
0 -160 160 0 160 0 0 160 0 160 -160 0 -160 0 0 160 0 160 160 0 160 0 -2 163
-3 162 -157 3 -158 3 0 159 0 160 -160 0 -160 0 0 -160 0 -160 -165 0 -165 0
0 160 0 160 -160 0 -160 0 0 -165z m970 -325 l0 -160 -165 0 -165 0 0 160 0
160 165 0 165 0 0 -160z m-322 -322 l3 -158 -166 0 -165 0 0 160 0 160 163 -2
162 -3 3 -157z"/>
<path d="M512 958 l3 -443 443 -3 442 -2 0 155 0 155 -290 0 -290 0 0 290 0
290 -155 0 -155 0 2 -442z"/>
<path d="M4300 1110 l0 -290 -290 0 -290 0 0 -155 0 -155 443 2 442 3 3 443 2
442 -155 0 -155 0 0 -290z"/>
</g>
</svg>
